<svg clip-rule="evenodd" fill-rule="evenodd" stroke-linejoin="round" stroke-miterlimit="2" viewBox="0 0 42 44" xmlns="http://www.w3.org/2000/svg" xmlns:xlink="http://www.w3.org/1999/xlink"><linearGradient id="a" gradientTransform="matrix(48 -48 48 48 0 48)" gradientUnits="userSpaceOnUse" x1="0" x2="1" y1="0" y2="0"><stop offset="0" stop-color="#2ca9b7"/><stop offset="1" stop-color="#1b648f"/></linearGradient><g fill="url(#a)" fill-rule="nonzero" transform="translate(-3 -3)"><path d="m23.667 29.675c-3.851 0-6.191-4.543-6.777-6.103-.244-.154-.454-.287-.597-.544-.897-1.616-1.119-2.931-.659-3.91.173-.368.426-.646.695-.843.009-.692.073-1.827.355-2.94.117-.767 1.021-4.834 6.982-4.834 5.982 0 6.868 4.06 6.982 4.837.281 1.112.346 2.246.354 2.938.27.198.522.475.695.843.46.979.238 2.294-.659 3.91-.143.257-.353.391-.596.544-.588 1.563-2.929 6.102-6.775 6.102zm-5.727-7.804c.007.004.013.008.019.012.318.201.619.391.738.8.301 1.063 2.301 4.992 4.97 4.992 2.666 0 4.669-3.929 4.968-4.985.115-.413.433-.613.739-.808.007-.004.013-.007.019-.011.679-1.291.54-1.794.504-1.886-.034-.084-.095-.115-.129-.125-.492-.092-.796-.526-.771-1.026.001-.016.079-1.603-.298-3.049-.016-.06-.025-.122-.03-.184-.028-.308-.417-3.101-5.002-3.101-4.716 0-4.994 2.981-5.004 3.108-.004.06-.015.119-.029.177-.379 1.457-.299 3.032-.299 3.048.027.501-.32.945-.814 1.037.011 0-.05.031-.084.115-.037.092-.175.596.503 1.886z"/><path d="m10.156 39.188c-.553 0-1-.448-1-1 0-4.575 2.555-7.814 7.389-9.366 2.151-.691 3.313-1.823 3.324-1.834.392-.387 1.023-.386 1.413.003.389.389.392 1.018.004 1.409-.06.06-1.485 1.477-4.13 2.327-4.037 1.296-6 3.737-6 7.462 0 .551-.447.999-1 .999z"/><path d="m28.848 30.106c-.15 0-.304-.034-.448-.106-1.505-.756-2.318-1.566-2.353-1.601-.389-.392-.387-1.025.006-1.415.39-.387 1.021-.385 1.41.002.007.006.643.627 1.835 1.226.493.248.692.849.444 1.342-.176.351-.528.552-.894.552z"/><path d="m41 47h-8c-1.654 0-3-1.346-3-3v-6c0-.552.447-1 1-1h12c.553 0 1 .448 1 1v6c0 1.654-1.346 3-3 3zm-9-8v5c0 .551.448 1 1 1h8c.552 0 1-.449 1-1v-5z"/><path d="m43 38h-2v-1.25c0-2.481-2.019-4.5-4.5-4.5s-4.5 2.019-4.5 4.5v1.25h-2v-1.25c0-3.584 2.916-6.5 6.5-6.5s6.5 2.916 6.5 6.5z"/><path d="m24 45c-11.579 0-21-9.42-21-21s9.421-21 21-21 21 9.42 21 21c0 1.362-.132 2.724-.391 4.05-.106.542-.628.896-1.174.79-.542-.106-.895-.631-.789-1.173.235-1.201.354-2.434.354-3.667 0-10.477-8.523-19-19-19s-19 8.523-19 19 8.523 19 19 19c.553 0 1 .448 1 1s-.447 1-1 1z"/></g></svg>