<svg viewBox="0 0 125 102" xmlns="http://www.w3.org/2000/svg" fill-rule="evenodd" clip-rule="evenodd" stroke-linejoin="round" stroke-miterlimit="2"><path d="M113 2419C37 2381-5 2304 2 2211c6-91 52-144 188-220 14-8 63-37 110-64s102-59 122-71c99-56 183-105 288-166 178-104 491-285 530-307 19-11 76-44 125-73 50-29 111-64 138-79 26-14 47-29 47-32 0-4-80-51-177-105-98-54-257-143-353-197-96-55-195-111-220-124s-63-34-85-47c-22-12-65-36-95-53s-90-50-133-74c-94-53-102-58-246-139-63-35-129-76-147-92-57-50-79-139-56-223C51 99 111 33 157 14 184 2 420 0 1485 0c1254 0 1297 1 1333 19 45 23 73 52 101 106 47 89 9 214-83 270l-49 30-1708 10 117 65c64 36 137 77 163 92 25 15 60 34 76 42 28 14 91 49 190 106 22 13 58 33 80 45 42 24 217 122 349 196 109 61 156 126 156 214 0 100-53 159-239 265-72 41-150 86-174 100s-78 45-121 70c-82 47-113 65-242 140-94 55-149 87-295 170l-114 65 1820 10 44 25c67 38 104 97 109 173 4 73-12 120-59 166-65 65 31 61-1443 61-1337 0-1341 0-1383-21z" fill="url(#sigma_gradient)" fill-rule="nonzero" transform="matrix(.04167 0 0 -.04167 -.052 101.669)"/><defs><linearGradient id="sigma_gradient" x1="0" y1="0" x2="1" y2="0" gradientUnits="userSpaceOnUse" gradientTransform="rotate(39.135 .622 1.75) scale(3866.06)"><stop offset="0" stop-color="#2ca9b7"/><stop offset="1" stop-color="#1b648f"/></linearGradient></defs></svg>