<svg width="256" height="256" viewBox="0 0 67.733 67.733" xmlns="http://www.w3.org/2000/svg"><path style="fill:#444747;stroke-width:.264583" d="M92.133 117.951c-4.52-.48-9.817-1.74-13.65-3.943l-1.977-1.137-.365-3.418c-.202-1.898-.278-5.308.077-4.8.441-.049 1.212 1.386 2.325 1.9 2.626 1.214 6.149 2.212 9.516 2.944 2.318.505 3.4.717 8.532.726 5.222.009 6.268-.131 8.738-.66 2.821-.605 6.876-1.901 9.255-2.817l1.264-.486-.004 3.095c-.08 1.702-.166 3.329-.22 3.506-.054.177-1.123.857-2.257 1.425-6.221 3.114-14.142 4.419-21.234 3.665zm-2.194-14.114c-3.658 0-7.682-1.239-11.043-2.313-2.705-.865-2.34.464-2.84.072-.23-.18-1.293-5.246-.735-3.892.82 1.99 1.127.826 2.042 1.387 2.504 1.536 7.047 2.968 12.689 3.56 8.23.86 20.049-.514 24.737-3.05.789-.426 1.685-2.1 1.91-1.749.08.124-.398 2.834-.634 3.05-.112.585-.26-.406-1.418.027-2.124.795-9.248 2.63-11.979 3.586-2.558.896-10.318-.678-12.729-.678z" transform="translate(-62.364 -81.756)"/><path style="fill:none;stroke-width:.264583" d="M62.423 111.788V77.921h67.733v67.734H62.423Zm40.401 15.47c11.73-1.523 21.807-6.242 23.613-11.055 1.175-3.132-1.953-6.732-8.585-9.882-2.261-1.073-2.118-.654-1.723-5.034.134-1.482.391-2.932.572-3.221 1.215-1.946-4.198-4.281-12.739-5.495-8.741-1.243-21.391.152-27.044 2.982-1.654.828-1.912 1.348-1.532 3.089.164.755.368 2.622.451 4.15l.152 2.779-1.68.793c-4.243 2.006-7.839 5.119-8.382 7.258-.548 2.16.49 4.215 3.253 6.442 4.099 3.305 12.99 6.37 21.156 7.291 3.406.384 9.12.34 12.488-.097z" transform="translate(-62.364 -81.756)"/><path style="fill:#238e9e;stroke-width:.264583" d="M90.336 127.355c-8.165-.922-17.057-3.986-21.156-7.29-2.764-2.228-3.801-4.283-3.253-6.443.543-2.138 4.139-5.252 8.379-7.256l1.675-.791-.125-2.595c-.099-2.048-.36-3.19-.186-2.8.1.226 1.976.803 3.611 1.32 8.727 2.764 18.577 3.363 27.662 1.536 2.293-.462 8.131-1.987 9.198-2.856.475-.387.052.266-.127 2.663l-.189 2.516 2.005.952c5.444 2.585 8.886 5.823 8.886 8.36 0 2.675-2.596 5.415-7.432 7.845-7.954 3.995-19.429 5.913-28.948 4.839zm9.696-9.493c4.728-.476 9.363-1.781 13.268-3.736 1.135-.568 2.107-1.178 2.161-1.355.054-.177.163-1.714.243-3.416l.144-3.095-1.247.545c-2.336 1.021-6.457 2.32-9.278 2.925-2.47.529-3.547.602-8.77.593-5.13-.01-6.323-.092-8.642-.596-3.366-.733-6.9-1.88-9.525-3.093-1.113-.515-2.324-1.342-2.39-1.275-.066.066.211 2.14.317 4.046l.193 3.466 2.043 1.027c6.557 3.297 14.166 4.7 21.483 3.964zm-10.886-15.085c-4.983-.615-10.462-2.116-12.545-3.436-2.019-1.28-1.902-2.678.317-3.788 5.653-2.83 18.303-4.225 27.044-2.982 6.486.922 12.08 2.802 12.757 4.287.912 2.003-3.226 4.005-11.176 5.406-3.74.66-12.89.946-16.397.513z" transform="translate(-62.364 -81.756)"/></svg>